<?xml version="1.0" encoding="UTF-8"?>
<svg id="Layer_1" xmlns="http://www.w3.org/2000/svg" version="1.1" viewBox="0 0 151.89 34.01">
  <!-- Generator: Adobe Illustrator 29.8.2, SVG Export Plug-In . SVG Version: 2.1.1 Build 3)  -->
  <defs>
    <style>
      .st0 {
        fill: #100f0f;
      }
    </style>
  </defs>
  <g>
    <g>
      <path class="st0" d="M43.76,13.76c0-2.23-1.81-4.05-4.04-4.05s-4.05,1.81-4.05,4.05v8.53h-4.48V5.23h2.24c.85,0,1.59.48,1.97,1.17,1.27-.75,2.74-1.17,4.32-1.17,4.71,0,8.53,3.82,8.53,8.53v8.53h-4.48v-8.53h0Z"/>
      <path class="st0" d="M67.79,13.76c0,4.71-3.82,8.53-8.53,8.53s-8.53-3.82-8.53-8.53,3.82-8.53,8.53-8.53,8.53,3.82,8.53,8.53ZM63.31,13.76c0-2.23-1.81-4.05-4.05-4.05s-4.05,1.81-4.05,4.05,1.81,4.05,4.05,4.05,4.05-1.81,4.05-4.05Z"/>
      <path class="st0" d="M70.28,5.23h2.24c.85,0,1.59.48,1.97,1.17,1.27-.74,2.74-1.17,4.32-1.17v4.48c-2.23,0-4.04,1.8-4.05,4.03v8.54h-4.48V5.23Z"/>
      <path class="st0" d="M96.94,1.71v20.58h-2.24c-.85,0-1.59-.48-1.97-1.17-1.28.75-2.76,1.18-4.35,1.17-4.74-.02-8.64-4.07-8.49-8.8s3.9-8.25,8.52-8.25c1.46,0,2.84.37,4.04,1.02V.16h2.93c.86,0,1.55.69,1.55,1.55ZM88.42,9.72c-2.23,0-4.05,1.81-4.05,4.05s1.81,4.05,4.05,4.05,4.04-1.8,4.04-4.03v-.03c0-2.23-1.82-4.03-4.04-4.03Z"/>
      <path class="st0" d="M107.6,22.29V.16h2.94c.85,0,1.55.69,1.55,1.55v20.58s-4.48,0-4.48,0Z"/>
      <path class="st0" d="M131.42,5.23v17.06h-2.24c-.85,0-1.59-.48-1.97-1.17-1.27.75-2.74,1.17-4.32,1.17-4.71,0-8.53-3.82-8.53-8.53s3.82-8.53,8.53-8.53c1.58,0,3.05.43,4.32,1.17.38-.7,1.12-1.17,1.97-1.17h2.24ZM122.89,9.72c-2.23,0-4.05,1.81-4.05,4.05s1.81,4.05,4.05,4.05,4.04-1.8,4.04-4.03v-.03c0-2.23-1.82-4.03-4.04-4.03Z"/>
      <path class="st0" d="M139.31,1.76v4.49c1.27-.68,2.73-1.06,4.28-1.02,4.43.12,8.12,3.77,8.28,8.2.18,4.86-3.71,8.85-8.52,8.85-1.58,0-3.05-.43-4.32-1.17-.38.7-1.12,1.17-1.97,1.17h-2.24V.16h2.88c.89,0,1.6.72,1.6,1.6ZM139.31,13.75v.03c0,2.23,1.82,4.03,4.05,4.03s4.05-1.81,4.05-4.05-1.81-4.05-4.05-4.05c-2.23,0-4.04,1.8-4.05,4.03Z"/>
    </g>
    <g>
      <path class="st0" d="M15.32,9.36l4.78-4.78c-.69-.95-1.52-1.78-2.47-2.47l-4.78,4.78V.14c-.57-.09-1.15-.14-1.74-.14s-1.18.05-1.74.14v6.76L4.58,2.12c-.95.69-1.78,1.52-2.47,2.47l4.78,4.78H.14c-.09.57-.14,1.15-.14,1.74s.05,1.18.14,1.74h2.93c.96,0,1.82-.51,2.36-1.3,1.23-1.82,3.31-3.02,5.68-3.02s4.45,1.2,5.68,3.03c.53.79,1.4,1.3,2.35,1.3h2.94c.09-.57.14-1.15.14-1.74s-.05-1.18-.14-1.74h-6.76Z"/>
      <path class="st0" d="M14.25,12.2l-.24-.24c-.15-.14-.31-.27-.48-.39-.69-.47-1.52-.75-2.42-.75s-1.73.28-2.42.75c-.17.12-.33.25-.48.39l-.24.24-1.07,1.07-4.78,4.78c.69.95,1.52,1.78,2.47,2.47l4.78-4.78,1.05-1.05s0,0,0,0c.18-.17.42-.28.69-.28.25,0,.48.1.65.25.03.02.05.05.08.08l1.01,1.01h0s1.79,1.79,1.79,1.79l2.99,2.99c.95-.69,1.78-1.52,2.47-2.47l-4.78-4.78-1.07-1.07Z"/>
      <path class="st0" d="M10.92,17.14c-.96,0-1.74.78-1.74,1.74v3.43c.06,0,.11.02.17.03.02,0,.05,0,.07.01.05,0,.11.01.16.02.03,0,.06,0,.09.01.05,0,.1.01.15.02.07,0,.15.01.22.02.04,0,.07,0,.11,0,.05,0,.1,0,.15,0,.03,0,.07,0,.11,0,.06,0,.11,0,.17,0,.03,0,.06,0,.09,0,.09,0,.17,0,.26,0s.17,0,.26,0c.03,0,.06,0,.09,0,.06,0,.11,0,.17,0,.04,0,.07,0,.11,0,.05,0,.1,0,.15,0,.04,0,.07,0,.11,0,.07,0,.15-.01.22-.02.05,0,.1-.01.15-.02.03,0,.06,0,.09-.01.05,0,.11-.01.16-.02.02,0,.05,0,.07-.01.06,0,.11-.02.17-.03v-3.43c0-.96-.78-1.74-1.74-1.74Z"/>
    </g>
  </g>
  <g>
    <path class="st0" d="M73.63,31.56c-.48.58-1.03.86-1.66.86-.56,0-1.04-.2-1.44-.61-.4-.41-.59-.89-.59-1.45s.2-1.06.59-1.45c.4-.4.88-.6,1.44-.6.62,0,1.17.28,1.64.84l-.45.4c-.36-.42-.76-.64-1.19-.64-.4,0-.73.14-1.01.43-.28.29-.41.63-.41,1.02s.14.74.41,1.02c.28.28.61.42,1.01.42.44,0,.85-.22,1.21-.65l.45.4Z"/>
    <path class="st0" d="M74.76,31.83c-.4-.4-.59-.89-.59-1.46s.2-1.05.59-1.46c.4-.41.88-.61,1.44-.61s1.05.2,1.44.61c.4.4.59.89.59,1.46s-.2,1.04-.59,1.46c-.4.4-.88.61-1.44.61s-1.05-.2-1.44-.6ZM74.78,30.36c0,.4.14.74.42,1.02.28.28.62.42,1.01.42s.73-.14,1-.42c.28-.28.42-.62.42-1.02s-.14-.74-.42-1.02-.61-.42-1-.42-.73.14-1.01.42-.42.62-.42,1.02Z"/>
    <path class="st0" d="M79.5,29.13c.27-.48.65-.73,1.15-.73,1.06,0,1.59.67,1.59,1.99v1.93h-.59v-1.93c0-.93-.36-1.4-1.08-1.4s-1.08.46-1.07,1.39v1.95h-.59v-3.95h.59v.74Z"/>
    <path class="st0" d="M83.53,29.52c.06.25.33.43.82.55.72.17,1.14.51,1.26,1.01.02.07.03.15.03.23,0,.28-.13.54-.39.76-.28.24-.64.37-1.08.37-.33,0-.73-.1-1.2-.3l.24-.55c.38.17.7.25.96.25.06,0,.11,0,.14,0,.24-.02.43-.09.57-.22h0c.12-.1.18-.2.18-.31,0-.01,0-.04-.02-.09-.06-.24-.33-.42-.82-.55-.73-.21-1.15-.54-1.26-.99h0c-.02-.09-.03-.17-.03-.24,0-.28.12-.53.37-.75h0c.23-.19.5-.32.83-.36.09-.01.19-.02.28-.02.3,0,.67.09,1.11.26l-.21.56c-.37-.15-.66-.22-.89-.22-.04,0-.1,0-.18.02h0c-.23.03-.4.1-.54.22-.11.1-.16.2-.16.3,0,.03,0,.06.01.09h0Z"/>
    <path class="st0" d="M88.94,28.39h.59v2.4c0,.45-.16.83-.47,1.15-.31.32-.69.48-1.13.48s-.82-.16-1.13-.48c-.31-.32-.47-.7-.47-1.15v-2.4h.59v2.4c0,.28.1.52.3.73.2.2.43.3.71.3s.52-.1.71-.3c.2-.2.3-.44.3-.73v-2.4Z"/>
    <path class="st0" d="M90.43,26.79h.59v5.54h-.59v-5.54Z"/>
    <path class="st0" d="M93.71,32.35c-.18.02-.31.03-.4.03-.39,0-.7-.13-.95-.38-.28-.28-.43-.68-.43-1.21v-3.61h.6v1.21h1.14v.61h-1.14v1.8c0,.36.08.61.24.77.13.13.34.2.62.2.04,0,.13,0,.28-.02l.03.61Z"/>
    <path class="st0" d="M94.54,31.83c-.4-.4-.59-.89-.59-1.46s.2-1.05.59-1.46c.4-.41.88-.61,1.44-.61s1.05.2,1.44.61c.4.4.59.89.59,1.46s-.2,1.04-.59,1.46c-.4.4-.88.61-1.44.61s-1.05-.2-1.44-.6ZM94.55,30.36c0,.4.14.74.42,1.02.28.28.62.42,1.01.42s.73-.14,1-.42c.28-.28.42-.62.42-1.02s-.14-.74-.42-1.02-.61-.42-1-.42-.73.14-1.01.42-.42.62-.42,1.02Z"/>
    <path class="st0" d="M99.23,29.11c.19-.56.49-.8.91-.74.15,0,.34.03.56.1l-.16.58c-.19-.06-.32-.09-.4-.09-.16,0-.32.06-.46.17-.29.22-.44.68-.45,1.36v1.83h-.59v-3.94h.59v.72Z"/>
    <path class="st0" d="M101.18,27.14h.59v.65h-.59v-.65ZM101.18,28.38h.59v3.96h-.59v-3.96Z"/>
    <path class="st0" d="M105.83,32.34v-.79c-.39.53-.85.79-1.36.79-.54,0-1-.19-1.37-.58h0c-.38-.39-.57-.85-.57-1.39s.19-1,.57-1.39c.38-.38.84-.57,1.37-.57s.98.27,1.36.82v-.81h.59v3.94h-.59ZM104.48,31.73c.38,0,.7-.13.96-.4.26-.27.4-.59.4-.97s-.13-.7-.4-.97c-.26-.27-.58-.4-.96-.4s-.7.13-.96.4c-.26.27-.4.59-.4.97s.13.7.4.97c.26.27.58.4.96.4Z"/>
    <path class="st0" d="M112.74,30.94c0,.23.07.43.22.59.14.15.38.23.71.23v.62c-.43,0-.76-.1-1-.29-.12-.1-.22-.22-.3-.36-.07.11-.17.21-.29.3-.32.23-.68.35-1.08.35-.18,0-.35-.03-.5-.08-.46-.16-.79-.45-1-.87-.11-.24-.17-.48-.17-.71,0-.18.03-.36.1-.56.09-.24.23-.44.43-.61.09-.08.18-.15.27-.2-.25-.15-.42-.37-.52-.65h0c-.06-.16-.09-.32-.09-.49,0-.2.05-.4.15-.61.18-.38.47-.63.87-.76.17-.06.34-.09.5-.09.25,0,.49.07.72.19l.27.14-.29.55-.27-.14c-.15-.08-.29-.12-.44-.12-.09,0-.2.02-.31.05h0c-.23.08-.4.23-.51.45-.06.12-.08.24-.08.35,0,.09.02.18.05.27.06.14.16.26.3.36.15.1.33.17.56.2h1.09v-1.13h.61v1.13h.92v.62h-.92v1.27ZM111.19,31.73c.19-.04.36-.11.51-.22.28-.21.42-.49.42-.84v-1.01h-1.09c-.29.05-.51.13-.68.25-.18.12-.3.27-.36.46-.04.11-.07.22-.07.35,0,.15.03.3.1.43.13.28.35.46.64.56h0c.09.03.19.05.3.05.07,0,.14,0,.22-.02h0Z"/>
    <path class="st0" d="M120.75,28.39c1.02,0,1.53.65,1.53,1.95v2h-.59v-2c0-.9-.33-1.35-.98-1.35-.27,0-.5.11-.69.34-.19.24-.29.54-.29.92v2.09h-.59v-2.18c0-.34-.1-.62-.29-.84-.18-.22-.42-.33-.69-.33-.65,0-.98.43-.98,1.28v2.07h-.59v-3.96h.59v.7c.23-.46.6-.69,1.09-.69.56,0,.97.27,1.23.8.26-.53.67-.8,1.23-.8Z"/>
    <path class="st0" d="M126.43,32.34v-.79c-.39.53-.85.79-1.36.79-.54,0-1-.19-1.37-.58h0c-.38-.39-.57-.85-.57-1.39s.19-1,.57-1.39c.38-.38.84-.57,1.37-.57s.98.27,1.36.82v-.81h.59v3.94h-.59ZM125.07,31.73c.38,0,.7-.13.96-.4.26-.27.4-.59.4-.97s-.13-.7-.4-.97c-.26-.27-.58-.4-.96-.4s-.7.13-.96.4c-.26.27-.4.59-.4.97s.13.7.4.97c.26.27.58.4.96.4Z"/>
    <path class="st0" d="M128.45,29.11c.19-.56.49-.8.91-.74.15,0,.34.03.56.1l-.16.58c-.19-.06-.32-.09-.4-.09-.16,0-.32.06-.46.17-.29.22-.44.68-.45,1.36v1.83h-.59v-3.94h.59v.72Z"/>
    <path class="st0" d="M131.08,26.81v3.06l1.71-1.48h.91l-2.21,1.91,2.44,2.04h-.94l-1.91-1.6v1.6h-.59v-5.52h.59Z"/>
    <path class="st0" d="M135.74,28.32c.55,0,1.02.2,1.4.6.39.4.58.89.58,1.46v.3h-3.35c.06.31.2.56.42.76.27.26.6.38.99.38.22,0,.45-.05.68-.14.21-.09.42-.24.62-.48l.45.41c-.24.29-.52.5-.83.63-.3.13-.61.19-.91.19-.58,0-1.06-.2-1.45-.59h0c-.39-.39-.59-.88-.59-1.47s.19-1.06.58-1.46c.39-.4.86-.6,1.4-.6ZM137.1,30.07c-.07-.29-.21-.54-.42-.76-.27-.26-.59-.39-.94-.39s-.68.13-.94.39h0c-.23.22-.37.48-.42.76h2.72Z"/>
    <path class="st0" d="M140.18,32.35c-.18.02-.31.03-.4.03-.39,0-.7-.13-.95-.38-.28-.28-.43-.68-.43-1.21v-3.61h.6v1.21h1.14v.61h-1.14v1.8c0,.36.08.61.24.77.13.13.34.2.62.2.04,0,.13,0,.28-.02l.03.61Z"/>
    <path class="st0" d="M140.98,27.14h.59v.65h-.59v-.65ZM140.98,28.38h.59v3.96h-.59v-3.96Z"/>
    <path class="st0" d="M143.07,29.13c.27-.48.65-.73,1.15-.73,1.06,0,1.59.67,1.59,1.99v1.93h-.59v-1.93c0-.93-.36-1.4-1.08-1.4s-1.08.46-1.07,1.39v1.95h-.59v-3.95h.59v.74Z"/>
    <path class="st0" d="M149.89,28.38h.59v3.49c0,1.42-.66,2.13-1.97,2.13-.38,0-.73-.09-1.06-.27h0c-.38-.19-.67-.53-.88-1l.54-.24c.15.34.36.58.62.72.25.13.51.19.78.19.4,0,.71-.08.92-.25.3-.23.45-.66.45-1.28v-.35c-.33.56-.79.84-1.37.84-.54,0-1-.2-1.39-.59-.39-.39-.58-.86-.58-1.4s.19-1.02.58-1.41c.39-.39.85-.59,1.39-.59.58,0,1.04.28,1.37.84v-.83ZM148.52,31.76c.38,0,.7-.14.97-.41.27-.27.4-.6.4-.98s-.13-.71-.4-.99-.59-.41-.97-.41-.71.14-.97.41c-.27.27-.4.6-.4.99s.13.71.4.98c.27.27.59.41.97.41Z"/>
  </g>
</svg>